<svg xmlns="http://www.w3.org/2000/svg" width="145" height="39">
    <path fill="#31F896" fill-rule="evenodd" d="M144 7a1 1 0 0 1 1 1v24a1 1 0 0 1-2 0V8a1 1 0 0 1 1-1z"/>
    <path fill="#20F88D" fill-rule="evenodd" d="M24.987 19.514l-.004.02c.012.467-.173.909-.516 1.223l-10.56 17.45a1.622 1.622 0 0 1-.535.521c-.042.03-.08.062-.126.088-.043.023-.092.023-.136.042a1.455 1.455 0 0 1-.61.124 1.455 1.455 0 0 1-.61-.124c-.044-.019-.093-.018-.136-.042-.046-.026-.084-.059-.126-.088a1.622 1.622 0 0 1-.535-.521L.533 20.757a1.592 1.592 0 0 1-.516-1.223l-.004-.02c.001-.007-.003-.014-.003-.022a1.53 1.53 0 0 1 .02-.183c.029-.402.195-.777.491-1.055L11.093.786c.136-.225.328-.39.537-.523.042-.029.079-.062.124-.087.043-.023.091-.022.135-.041.105-.043.207-.078.318-.099a1.596 1.596 0 0 1 .904.099c.044.019.092.018.135.041.045.025.082.058.124.087.209.133.401.298.537.523l10.572 17.468c.296.278.462.653.491 1.055a1.53 1.53 0 0 1 .02.183c0 .008-.004.015-.003.022zM12.5 34.636l6.202-10.247-5.242 3.243a1.394 1.394 0 0 1-.729.328c-.078.015-.153.015-.231.017-.078-.002-.153-.002-.231-.017a1.394 1.394 0 0 1-.729-.328l-5.242-3.243L12.5 34.636zm0-30.28l-6.21 10.26 5.25-3.248c.211-.186.462-.288.729-.328.078-.015.153-.015.231-.017.078.002.153.002.231.017.267.04.518.142.729.328l5.25 3.248-6.21-10.26zm0 10.065L4.289 19.5l8.211 5.079 8.211-5.079-8.211-5.079z"/>
    <path fill="#FAFAFA" fill-rule="evenodd" d="M127.685 22.607a2.9 2.9 0 0 1-1.057 1.225c-.453.289-.983.434-1.589.434-.532 0-.997-.117-1.393-.35a2.246 2.246 0 0 1-.903-.994v3.29a.54.54 0 0 1-.147.399c-.098.098-.236.147-.413.147a.564.564 0 0 1-.42-.154.53.53 0 0 1-.154-.392V17.77c0-.168.051-.303.154-.406a.564.564 0 0 1 .42-.154c.177 0 .315.051.413.154a.564.564 0 0 1 .147.406v.756c.205-.429.506-.761.903-.994.396-.233.861-.35 1.393-.35.597 0 1.124.149 1.582.448a2.96 2.96 0 0 1 1.064 1.253c.252.537.378 1.16.378 1.869 0 .709-.126 1.328-.378 1.855zm-1.33-3.78c-.364-.462-.878-.693-1.54-.693-.663 0-1.174.224-1.533.672-.36.448-.539 1.087-.539 1.918s.179 1.472.539 1.925c.359.453.87.679 1.533.679.662 0 1.176-.224 1.54-.672.364-.448.546-1.083.546-1.904s-.182-1.463-.546-1.925zm-7.875 5.005c-.453.289-.983.434-1.589.434-.532 0-.997-.117-1.393-.35a2.246 2.246 0 0 1-.903-.994v3.29a.54.54 0 0 1-.147.399c-.098.098-.236.147-.413.147a.564.564 0 0 1-.42-.154.53.53 0 0 1-.154-.392V17.77c0-.168.051-.303.154-.406a.564.564 0 0 1 .42-.154c.177 0 .315.051.413.154a.564.564 0 0 1 .147.406v.756c.205-.429.506-.761.903-.994.396-.233.861-.35 1.393-.35.597 0 1.124.149 1.582.448a2.96 2.96 0 0 1 1.064 1.253c.252.537.378 1.16.378 1.869 0 .709-.126 1.328-.378 1.855a2.9 2.9 0 0 1-1.057 1.225zm-.273-5.005c-.364-.462-.878-.693-1.54-.693-.663 0-1.174.224-1.533.672-.36.448-.539 1.087-.539 1.918s.179 1.472.539 1.925c.359.453.87.679 1.533.679.662 0 1.176-.224 1.54-.672.364-.448.546-1.083.546-1.904s-.182-1.463-.546-1.925zm-6.748 5.411c-.233 0-.397-.112-.49-.336l-.994-2.268h-5.278l-1.008 2.268c-.093.224-.257.336-.49.336a.577.577 0 0 1-.392-.147.457.457 0 0 1-.168-.357c0-.075.018-.149.056-.224l4.004-8.904a.6.6 0 0 1 .252-.294.712.712 0 0 1 .364-.098c.14 0 .266.035.378.105.112.07.196.166.252.287l4.004 8.904a.53.53 0 0 1 .056.238c0 .14-.054.257-.161.35a.569.569 0 0 1-.385.14zm-4.13-8.582l-2.212 5.026h4.438l-2.226-5.026zm-10.5 8.582a.556.556 0 0 1-.42-.161.59.59 0 0 1-.154-.427v-8.834a.59.59 0 0 1 .154-.427.556.556 0 0 1 .42-.161c.177 0 .317.054.42.161a.59.59 0 0 1 .154.427v8.834a.59.59 0 0 1-.154.427.556.556 0 0 1-.42.161zm-6.86.042c-1.288 0-2.263-.336-2.926-1.008-.663-.672-.994-1.661-.994-2.968v-5.488a.59.59 0 0 1 .154-.427.556.556 0 0 1 .42-.161c.168 0 .303.054.406.161a.59.59 0 0 1 .154.427v5.586c0 .961.236 1.685.707 2.17.471.485 1.164.728 2.079.728.915 0 1.605-.243 2.072-.728.467-.485.7-1.209.7-2.17v-5.586c0-.177.054-.32.161-.427a.56.56 0 0 1 .413-.161c.177 0 .317.054.42.161a.59.59 0 0 1 .154.427v5.488c0 1.297-.334 2.284-1.001 2.961-.667.677-1.64 1.015-2.919 1.015zm-9.772-3.346h-4.508c.084 1.605.845 2.408 2.282 2.408.364 0 .677-.049.938-.147.261-.098.541-.231.84-.399.243-.14.406-.21.49-.21.103 0 .191.042.266.126a.464.464 0 0 1 .112.322c0 .233-.163.448-.49.644a4.243 4.243 0 0 1-1.064.441 4.288 4.288 0 0 1-1.092.147c-1.055 0-1.888-.313-2.499-.938-.611-.625-.917-1.489-.917-2.59 0-.7.135-1.318.406-1.855a3.031 3.031 0 0 1 1.141-1.253c.49-.299 1.048-.448 1.673-.448.887 0 1.591.289 2.114.868.523.579.784 1.363.784 2.352 0 .187-.037.322-.112.406-.075.084-.196.126-.364.126zm-1.036-2.317c-.327-.369-.784-.553-1.372-.553-.597 0-1.076.187-1.435.56-.359.373-.572.901-.637 1.582h3.962c-.019-.691-.191-1.22-.518-1.589zm-9.408 8.169c-.999 0-1.829-.196-2.492-.588-.336-.187-.504-.401-.504-.644 0-.131.035-.238.105-.322a.339.339 0 0 1 .273-.126c.093 0 .261.065.504.196.327.168.649.303.966.406.317.103.695.154 1.134.154.663 0 1.162-.175 1.498-.525.336-.35.504-.861.504-1.533V22.6a2.132 2.132 0 0 1-.903 1.008c-.406.233-.884.35-1.435.35-.597 0-1.127-.14-1.589-.42a2.844 2.844 0 0 1-1.078-1.19c-.257-.513-.385-1.106-.385-1.778 0-.672.128-1.265.385-1.778.257-.513.616-.91 1.078-1.19.462-.28.992-.42 1.589-.42.541 0 1.013.117 1.414.35.401.233.705.565.91.994v-.756c0-.168.049-.303.147-.406.098-.103.236-.154.413-.154s.317.051.42.154a.548.548 0 0 1 .154.406v5.936c0 1.017-.261 1.785-.784 2.303s-1.297.777-2.324.777zm1.421-8.001c-.369-.434-.884-.651-1.547-.651-.663 0-1.183.217-1.561.651-.378.434-.567 1.029-.567 1.785 0 .765.189 1.365.567 1.799.378.434.898.651 1.561.651.653 0 1.167-.217 1.54-.651.373-.434.56-1.034.56-1.799 0-.756-.184-1.351-.553-1.785zm-7.091 5.453c-.177 0-.315-.051-.413-.154a.564.564 0 0 1-.147-.406v-.756a2.246 2.246 0 0 1-.903.994c-.396.233-.861.35-1.393.35-.597 0-1.124-.149-1.582-.448a2.96 2.96 0 0 1-1.064-1.253c-.252-.537-.378-1.16-.378-1.869 0-.7.126-1.316.378-1.848a2.87 2.87 0 0 1 1.064-1.232c.458-.289.985-.434 1.582-.434.532 0 .997.117 1.393.35.397.233.698.565.903.994v-3.752a.54.54 0 0 1 .147-.399c.098-.098.236-.147.413-.147.178 0 .318.051.42.154a.53.53 0 0 1 .154.392v8.904a.548.548 0 0 1-.154.406.564.564 0 0 1-.42.154zm-1.099-5.432c-.359-.448-.87-.672-1.533-.672-.662 0-1.178.224-1.547.672-.368.448-.553 1.078-.553 1.89 0 .831.185 1.477.553 1.939.369.462.885.693 1.547.693.663 0 1.174-.226 1.533-.679.36-.453.539-1.094.539-1.925s-.179-1.47-.539-1.918zm-7.049-3.066a.762.762 0 0 1-.545-.196.672.672 0 0 1-.211-.518c0-.205.07-.373.211-.504a.762.762 0 0 1 .545-.196c.225 0 .406.065.546.196a.66.66 0 0 1 .211.504.676.676 0 0 1-.211.518.765.765 0 0 1-.546.196zm-2.113 2.464l-.42.042c-.626.056-1.09.278-1.393.665a2.144 2.144 0 0 0-.455 1.365v3.402c0 .187-.052.327-.154.42a.582.582 0 0 1-.406.14.588.588 0 0 1-.413-.147c-.108-.098-.161-.236-.161-.413V17.77a.52.52 0 0 1 .168-.413.593.593 0 0 1 .406-.147c.149 0 .275.049.378.147a.528.528 0 0 1 .154.399v.784c.196-.411.473-.723.833-.938a2.808 2.808 0 0 1 1.239-.378l.196-.014c.392-.028.588.131.588.476a.499.499 0 0 1-.126.357c-.084.089-.229.142-.434.161zm-5.278 3.276c0 .868-.285 1.533-.854 1.995-.57.462-1.377.693-2.422.693H41.74a.589.589 0 0 1-.427-.154.534.534 0 0 1-.161-.406v-8.75c0-.168.053-.303.161-.406a.589.589 0 0 1 .427-.154h3.374c1.017 0 1.806.224 2.366.672.56.448.84 1.083.84 1.904 0 .532-.138.989-.413 1.372-.276.383-.661.667-1.155.854.569.149 1.01.429 1.323.84.312.411.469.924.469 1.54zm-1.358-4.55c0-1.12-.747-1.68-2.24-1.68h-2.66v3.43h2.66c.737 0 1.295-.149 1.673-.448.378-.299.567-.733.567-1.302zm-2.03 2.702h-2.87v3.584h2.87c.774 0 1.346-.142 1.715-.427.368-.285.553-.73.553-1.337 0-1.213-.756-1.82-2.268-1.82zm10.779-2.422a.56.56 0 0 1 .406.147c.103.098.154.236.154.413v5.908c0 .187-.051.327-.154.42a.579.579 0 0 1-.406.14.59.59 0 0 1-.413-.147c-.107-.098-.16-.236-.16-.413V17.77c0-.177.053-.315.16-.413a.59.59 0 0 1 .413-.147z"/>
</svg>
