<svg xmlns="http://www.w3.org/2000/svg" width="38" height="44">
    <path fill="#5C34A2" fill-rule="evenodd" d="M34 44H4a4 4 0 0 1-4-4V14a4 4 0 0 1 4-4h6v2H4a2 2 0 1 0 0 4h30c.732 0 1.41.211 2 .555V14a2 2 0 0 0-2-2h-6v-2h6a4 4 0 0 1 4 4v26a4 4 0 0 1-4 4zm2-14v-3h-5a3 3 0 1 0 0 6h5v-3zm0 8h-3a1 1 0 0 1 0-2h3v-1h-5a5 5 0 0 1 0-10h5v-5a2 2 0 0 0-2-2H4c-.732 0-1.41-.211-2-.555V24h1.629l1.575-1.575A.983.983 0 0 1 6 22h14.184A2.99 2.99 0 0 1 23 20a3 3 0 1 1 0 6 2.99 2.99 0 0 1-2.816-2H6.371l-1.575 1.575A.983.983 0 0 1 4 26H2v3h2.184A2.99 2.99 0 0 1 7 27a3 3 0 1 1 0 6 2.99 2.99 0 0 1-2.816-2H2v3h2c.333 0 .614.174.796.425L6.371 36h7.813A2.99 2.99 0 0 1 17 34a3 3 0 1 1 0 6 2.99 2.99 0 0 1-2.816-2H6a.983.983 0 0 1-.796-.425L3.629 36H2v4a2 2 0 0 0 2 2h30a2 2 0 0 0 2-2v-2zM22 23a1 1 0 1 0 2 0 1 1 0 0 0-2 0zM6 30a1 1 0 1 0 2 0 1 1 0 0 0-2 0zm10 7a1 1 0 1 0 2 0 1 1 0 0 0-2 0zm14 1a1 1 0 1 1 0-2 1 1 0 0 1 0 2zm-3 0h-4a1 1 0 0 1-1-1v-6h-2.184A2.99 2.99 0 0 1 17 33a3 3 0 1 1 0-6 2.99 2.99 0 0 1 2.816 2H23a1 1 0 0 1 1 1v6h3a1 1 0 0 1 0 2zm-10-9a1 1 0 1 0 0 2 1 1 0 0 0 0-2zm13 1a1 1 0 1 1 2 0 1 1 0 0 1-2 0zm-1-17a1 1 0 0 1 0 2H9a1 1 0 0 1 0-2h3.325c-.191-.638-.325-1.3-.325-2a7 7 0 1 1 14 0c0 .7-.134 1.362-.325 2H29zM19 6a5 5 0 0 0-5 5c0 .712.154 1.387.422 2h9.156A4.979 4.979 0 0 0 24 11a5 5 0 0 0-5-5zm6-2a1 1 0 0 1-1-1V1a1 1 0 0 1 2 0v2a1 1 0 0 1-1 1zm-6-2a1 1 0 1 1 0-2 1 1 0 0 1 0 2zm-6 2a1 1 0 0 1-1-1V1a1 1 0 0 1 2 0v2a1 1 0 0 1-1 1z"/>
</svg>
