<svg xmlns="http://www.w3.org/2000/svg" width="234" height="50">
    <text fill="#FFF" font-family="Nunito" font-size="14" transform="matrix(1.91358 0 0 1.92308 120.425 34.23)">
        Loading
    </text>
    <path fill="#FFF" fill-rule="evenodd" d="M17.375 34.812v.001h-1.563v4.625h-.003l.003.015c0 .854-.713 1.547-1.593 1.547H1.594C.714 41 0 40.307 0 39.453l.003-.015H0V11.562h.003L0 11.547C0 10.693.714 10 1.594 10h15.781v.001C24.349 10.009 30 15.56 30 22.406c0 6.847-5.651 12.397-12.625 12.406zM48.5 10C57.06 10 64 16.94 64 25.5 64 34.06 57.06 41 48.5 41 39.94 41 33 34.06 33 25.5 33 16.94 39.94 10 48.5 10zM99.006 40.028a.955.955 0 0 1-.954.957H63.013c-.026.002-.049.015-.076.015a.946.946 0 0 1-.937-.953.94.94 0 0 1 .197-.557l-.018-.035 17.364-28.683h.039a.94.94 0 0 1 .915-.764c.459 0 .825.331.916.764h.038l17.555 28.874-.06.084a.93.93 0 0 1 .06.298z"/>
</svg>
