<svg xmlns="http://www.w3.org/2000/svg" width="34" height="10">
    <path fill="#FFF" fill-rule="evenodd" d="M6.344 8h-.5v1.5c0 .276-.231.5-.516.5l-.015-.003V10H1.25v-.003a.506.506 0 0 1-.5-.497v-9c0-.271.223-.488.5-.497V0h5.094c2.243 0 4.062 1.791 4.062 4S8.587 8 6.344 8zM16.484 0c2.805 0 5.079 2.239 5.079 5s-2.274 5-5.079 5c-2.804 0-5.078-2.239-5.078-5s2.274-5 5.078-5zM33.25 9.683a.312.312 0 0 1-.314.309H21.395c-.008 0-.012.008-.02.008a.313.313 0 0 1-.313-.313c0-.065.035-.116.07-.166l-.012-.023L26.839.242h.026c.033-.136.14-.247.289-.247.149 0 .256.111.288.247h.026L33.25 9.56l-.033.045c.008.028.033.048.033.078z"/>
</svg>
